<svg width="783" height="222" viewBox="0 0 783 222" fill="none" xmlns="http://www.w3.org/2000/svg">
<path fill-rule="evenodd" clip-rule="evenodd" d="M475.357 185.284C470.588 195.947 475.435 208.677 486.245 213.512C496.886 218.271 505.873 216.899 510.642 206.235C510.642 206.235 510.742 192.736 510.993 158.737C499.473 164.553 480.808 173.097 475.357 185.284Z" fill="url(#paint0_linear_0_1)"/>
<path fill-rule="evenodd" clip-rule="evenodd" d="M448.096 156.575C437.088 165.338 434.299 180.148 441.866 189.654C449.434 199.16 464.492 199.763 475.5 191L511 159L511.664 113.824L448.096 156.575Z" fill="url(#paint1_linear_0_1)"/>
<path fill-rule="evenodd" clip-rule="evenodd" d="M457.953 166.688C438.503 173.232 417.992 165.385 412.506 149.079C407.105 133.028 418.701 114.378 438.151 107.834C459.453 100.667 491.983 108.587 511.5 114.5C498.601 131.319 480.181 159.209 457.953 166.688Z" fill="url(#paint2_linear_0_1)"/>
<path fill-rule="evenodd" clip-rule="evenodd" d="M436.179 118.743C416.907 110.993 406.113 91.8809 412.406 76.2317C418.601 60.8267 439.622 54.5085 458.894 62.2586C480.001 70.7467 500.367 97.467 511.642 114.5C490.796 118.616 458.204 127.6 436.179 118.743Z" fill="url(#paint3_linear_0_1)"/>
<path fill-rule="evenodd" clip-rule="evenodd" d="M473.446 32.3722C462.666 23.3301 448.267 22.7482 441.285 31.0725C434.302 39.3968 437.381 53.475 448.16 62.5171L511.642 114.5L511.642 64.5L473.446 32.3722Z" fill="url(#paint4_linear_0_1)"/>
<path fill-rule="evenodd" clip-rule="evenodd" d="M476.203 37.6903C471.513 26.9919 476.454 14.2983 487.299 9.54362C497.975 4.86318 506.952 6.30157 511.642 17C511.642 17 511.642 30.5 511.642 64.5C500.165 58.5988 481.563 49.9171 476.203 37.6903Z" fill="url(#paint5_linear_0_1)"/>
<path fill-rule="evenodd" clip-rule="evenodd" d="M545.947 185.284C550.716 195.947 545.869 208.677 535.059 213.512C524.418 218.271 515.431 216.899 510.662 206.235C510.662 206.235 510.563 192.736 510.312 158.737C521.831 164.553 540.497 173.097 545.947 185.284Z" fill="url(#paint6_linear_0_1)"/>
<path fill-rule="evenodd" clip-rule="evenodd" d="M573.209 156.575C584.217 165.338 587.006 180.148 579.438 189.654C571.871 199.16 556.812 199.763 545.804 191L510.304 159L509.64 113.824L573.209 156.575Z" fill="url(#paint7_linear_0_1)"/>
<path fill-rule="evenodd" clip-rule="evenodd" d="M563.351 166.688C582.801 173.232 603.312 165.385 608.799 149.079C614.199 133.028 602.603 114.378 583.153 107.834C561.851 100.667 529.321 108.587 509.804 114.5C522.704 131.319 541.123 159.209 563.351 166.688Z" fill="url(#paint8_linear_0_1)"/>
<path fill-rule="evenodd" clip-rule="evenodd" d="M585.125 118.743C604.397 110.993 615.191 91.8809 608.898 76.2317C602.703 60.8267 581.682 54.5085 562.41 62.2586C541.303 70.7467 520.937 97.467 509.663 114.5C530.508 118.616 563.1 127.6 585.125 118.743Z" fill="url(#paint9_linear_0_1)"/>
<path fill-rule="evenodd" clip-rule="evenodd" d="M547.858 32.3722C558.638 23.3301 573.037 22.7482 580.02 31.0725C587.002 39.3968 583.924 53.475 573.144 62.5171L509.663 114.5L509.663 64.5L547.858 32.3722Z" fill="url(#paint10_linear_0_1)"/>
<path fill-rule="evenodd" clip-rule="evenodd" d="M545.101 37.6903C549.791 26.9919 544.851 14.2983 534.005 9.54362C523.329 4.86318 514.353 6.30157 509.663 17C509.663 17 509.663 30.5 509.663 64.5C521.139 58.5988 539.741 49.9171 545.101 37.6903Z" fill="url(#paint11_linear_0_1)"/>
<path d="M690.873 75.4785C660.094 58.9692 672.986 40.1244 683.279 32.7656L710.11 15.4885L704.541 6.37005C701.301 0.227076 706.903 -0.348828 710.11 0.131092L773.895 6.37005C782.805 7.52185 783.007 14.2087 781.995 17.4082L761.745 75.4785C759.72 82.6773 754.658 80.7576 753.139 78.8379L747.571 70.6793C746.558 69.2395 745.546 70.1993 744.533 70.6793L731.624 78.598L718.715 86.5166L690.873 75.4785Z" fill="url(#paint12_linear_0_1)"/>
<path d="M656.634 163.304L694.809 139.788L719.75 149.386C726.673 149.77 734.341 156.745 737.056 159.944C744.182 165.703 746.218 179.141 734.002 193.059L697.354 215.615C650.526 238.171 623.549 183.94 656.634 163.304Z" fill="url(#paint13_linear_0_1)"/>
<path d="M691.31 74.9985C660.832 58.4893 674.424 40.1244 684.616 32.7656L670.256 40.4443C627.748 64.2483 637.506 98.0347 648.2 111.952C655.944 122.031 677.274 132.589 691.31 138.348L723.392 151.306C751.463 164.743 740.769 185.06 731.913 193.539L755.473 178.181C784.748 154.761 773.018 124.43 764.496 111.952C757.278 100.05 731.078 89.7161 718.88 86.0367L691.31 74.9985Z" fill="url(#paint14_linear_0_1)"/>
<path d="M53.5909 98.6818C53.2273 95.0151 51.6667 92.1667 48.9091 90.1364C46.1515 88.1061 42.4091 87.0909 37.6818 87.0909C34.4697 87.0909 31.7576 87.5455 29.5455 88.4545C27.3333 89.3333 25.6364 90.5606 24.4545 92.1364C23.303 93.7121 22.7273 95.5 22.7273 97.5C22.6667 99.1667 23.0152 100.621 23.7727 101.864C24.5606 103.106 25.6364 104.182 27 105.091C28.3636 105.97 29.9394 106.742 31.7273 107.409C33.5152 108.045 35.4242 108.591 37.4545 109.045L45.8182 111.045C49.8788 111.955 53.6061 113.167 57 114.682C60.3939 116.197 63.3333 118.061 65.8182 120.273C68.303 122.485 70.2273 125.091 71.5909 128.091C72.9849 131.091 73.697 134.53 73.7273 138.409C73.697 144.106 72.2424 149.045 69.3636 153.227C66.5152 157.379 62.3939 160.606 57 162.909C51.6364 165.182 45.1667 166.318 37.5909 166.318C30.0758 166.318 23.5303 165.167 17.9545 162.864C12.4091 160.561 8.07576 157.152 4.95455 152.636C1.86364 148.091 0.242424 142.47 0.090909 135.773H19.1364C19.3485 138.894 20.2424 141.5 21.8182 143.591C23.4242 145.652 25.5606 147.212 28.2273 148.273C30.9242 149.303 33.9697 149.818 37.3636 149.818C40.697 149.818 43.5909 149.333 46.0455 148.364C48.5303 147.394 50.4545 146.045 51.8182 144.318C53.1818 142.591 53.8636 140.606 53.8636 138.364C53.8636 136.273 53.2424 134.515 52 133.091C50.7879 131.667 49 130.455 46.6364 129.455C44.303 128.455 41.4394 127.545 38.0455 126.727L27.9091 124.182C20.0606 122.273 13.8636 119.288 9.31818 115.227C4.77273 111.167 2.51515 105.697 2.54545 98.8182C2.51515 93.1818 4.01515 88.2576 7.04545 84.0455C10.1061 79.8333 14.303 76.5455 19.6364 74.1818C24.9697 71.8182 31.0303 70.6364 37.8182 70.6364C44.7273 70.6364 50.7576 71.8182 55.9091 74.1818C61.0909 76.5455 65.1212 79.8333 68 84.0455C70.8788 88.2576 72.3636 93.1364 72.4545 98.6818H53.5909ZM123.739 95.1818V109.727H81.6932V95.1818H123.739ZM91.2386 78.4545H110.602V143.545C110.602 145.333 110.875 146.727 111.42 147.727C111.966 148.697 112.723 149.379 113.693 149.773C114.693 150.167 115.845 150.364 117.148 150.364C118.057 150.364 118.966 150.288 119.875 150.136C120.784 149.955 121.481 149.818 121.966 149.727L125.011 164.136C124.042 164.439 122.678 164.788 120.92 165.182C119.163 165.606 117.027 165.864 114.511 165.955C109.845 166.136 105.754 165.515 102.239 164.091C98.7538 162.667 96.0417 160.455 94.1023 157.455C92.1629 154.455 91.2083 150.667 91.2386 146.091V78.4545ZM167.42 166.364C160.239 166.364 154.057 164.909 148.875 162C143.723 159.061 139.754 154.909 136.966 149.545C134.178 144.152 132.784 137.773 132.784 130.409C132.784 123.227 134.178 116.924 136.966 111.5C139.754 106.076 143.678 101.848 148.739 98.8182C153.83 95.7879 159.799 94.2727 166.648 94.2727C171.254 94.2727 175.542 95.0152 179.511 96.5C183.511 97.9545 186.996 100.152 189.966 103.091C192.966 106.03 195.299 109.727 196.966 114.182C198.633 118.606 199.466 123.788 199.466 129.727V135.045H140.511V123.045H181.239C181.239 120.258 180.633 117.788 179.42 115.636C178.208 113.485 176.527 111.803 174.375 110.591C172.254 109.348 169.784 108.727 166.966 108.727C164.027 108.727 161.42 109.409 159.148 110.773C156.905 112.106 155.148 113.909 153.875 116.182C152.602 118.424 151.951 120.924 151.92 123.682V135.091C151.92 138.545 152.557 141.53 153.83 144.045C155.133 146.561 156.966 148.5 159.33 149.864C161.693 151.227 164.496 151.909 167.739 151.909C169.89 151.909 171.86 151.606 173.648 151C175.436 150.394 176.966 149.485 178.239 148.273C179.511 147.061 180.481 145.576 181.148 143.818L199.057 145C198.148 149.303 196.284 153.061 193.466 156.273C190.678 159.455 187.072 161.939 182.648 163.727C178.254 165.485 173.178 166.364 167.42 166.364ZM237.83 166.136C232.527 166.136 227.723 164.773 223.42 162.045C219.148 159.288 215.754 155.242 213.239 149.909C210.754 144.545 209.511 137.97 209.511 130.182C209.511 122.182 210.799 115.53 213.375 110.227C215.951 104.894 219.375 100.909 223.648 98.2727C227.951 95.6061 232.663 94.2727 237.784 94.2727C241.693 94.2727 244.951 94.9394 247.557 96.2727C250.193 97.5758 252.314 99.2121 253.92 101.182C255.557 103.121 256.799 105.03 257.648 106.909H258.239V71.9091H277.557V165H258.466V153.818H257.648C256.739 155.758 255.451 157.682 253.784 159.591C252.148 161.47 250.011 163.03 247.375 164.273C244.769 165.515 241.587 166.136 237.83 166.136ZM243.966 150.727C247.087 150.727 249.723 149.879 251.875 148.182C254.057 146.455 255.723 144.045 256.875 140.955C258.057 137.864 258.648 134.242 258.648 130.091C258.648 125.939 258.072 122.333 256.92 119.273C255.769 116.212 254.102 113.848 251.92 112.182C249.739 110.515 247.087 109.682 243.966 109.682C240.784 109.682 238.102 110.545 235.92 112.273C233.739 114 232.087 116.394 230.966 119.455C229.845 122.515 229.284 126.061 229.284 130.091C229.284 134.152 229.845 137.742 230.966 140.864C232.117 143.955 233.769 146.379 235.92 148.136C238.102 149.864 240.784 150.727 243.966 150.727ZM338.25 135.273V95.1818H357.614V165H339.023V152.318H338.295C336.72 156.409 334.098 159.697 330.432 162.182C326.795 164.667 322.356 165.909 317.114 165.909C312.447 165.909 308.341 164.848 304.795 162.727C301.25 160.606 298.477 157.591 296.477 153.682C294.508 149.773 293.508 145.091 293.477 139.636V95.1818H312.841V136.182C312.871 140.303 313.977 143.561 316.159 145.955C318.341 148.348 321.265 149.545 324.932 149.545C327.265 149.545 329.447 149.015 331.477 147.955C333.508 146.864 335.144 145.258 336.386 143.136C337.659 141.015 338.28 138.394 338.25 135.273Z" fill="url(#paint15_linear_0_1)"/>
<defs>
<linearGradient id="paint0_linear_0_1" x1="487.965" y1="162.717" x2="496.647" y2="213.82" gradientUnits="userSpaceOnUse">
<stop stop-color="#F1CC47"/>
<stop offset="1" stop-color="#F4D67F"/>
</linearGradient>
<linearGradient id="paint1_linear_0_1" x1="466.482" y1="200.07" x2="523.593" y2="176.418" gradientUnits="userSpaceOnUse">
<stop stop-color="#F0C343"/>
<stop offset="1" stop-color="#E63C8E"/>
</linearGradient>
<linearGradient id="paint2_linear_0_1" x1="510.439" y1="109.032" x2="410.356" y2="122.06" gradientUnits="userSpaceOnUse">
<stop stop-color="#865AE9"/>
<stop offset="1" stop-color="#E63D91"/>
</linearGradient>
<linearGradient id="paint3_linear_0_1" x1="408.637" y1="85.605" x2="487.334" y2="143.831" gradientUnits="userSpaceOnUse">
<stop stop-color="#A081EB"/>
<stop offset="1" stop-color="#2D68DB"/>
</linearGradient>
<linearGradient id="paint4_linear_0_1" x1="439.49" y1="55.2443" x2="472.122" y2="107.058" gradientUnits="userSpaceOnUse">
<stop stop-color="#F0ADF7"/>
<stop offset="1" stop-color="#4DA9F4"/>
</linearGradient>
<linearGradient id="paint5_linear_0_1" x1="487.215" y1="9.58074" x2="511.348" y2="64.629" gradientUnits="userSpaceOnUse">
<stop stop-color="#EDDCFB"/>
<stop offset="1" stop-color="#F0B6F6"/>
</linearGradient>
<linearGradient id="paint6_linear_0_1" x1="533.339" y1="162.717" x2="524.658" y2="213.82" gradientUnits="userSpaceOnUse">
<stop stop-color="#F1CC47"/>
<stop offset="1" stop-color="#F4D67F"/>
</linearGradient>
<linearGradient id="paint7_linear_0_1" x1="554.822" y1="200.07" x2="497.711" y2="176.418" gradientUnits="userSpaceOnUse">
<stop stop-color="#F0C343"/>
<stop offset="1" stop-color="#E63C8E"/>
</linearGradient>
<linearGradient id="paint8_linear_0_1" x1="510.866" y1="109.032" x2="610.948" y2="122.06" gradientUnits="userSpaceOnUse">
<stop stop-color="#865AE9"/>
<stop offset="1" stop-color="#E63D91"/>
</linearGradient>
<linearGradient id="paint9_linear_0_1" x1="612.667" y1="85.605" x2="533.97" y2="143.831" gradientUnits="userSpaceOnUse">
<stop stop-color="#A081EB"/>
<stop offset="1" stop-color="#2D68DB"/>
</linearGradient>
<linearGradient id="paint10_linear_0_1" x1="581.814" y1="55.2443" x2="549.182" y2="107.058" gradientUnits="userSpaceOnUse">
<stop stop-color="#F0ADF7"/>
<stop offset="1" stop-color="#4DA9F4"/>
</linearGradient>
<linearGradient id="paint11_linear_0_1" x1="534.09" y1="9.58074" x2="509.957" y2="64.629" gradientUnits="userSpaceOnUse">
<stop stop-color="#EDDCFB"/>
<stop offset="1" stop-color="#F0B6F6"/>
</linearGradient>
<linearGradient id="paint12_linear_0_1" x1="727.011" y1="0" x2="727.011" y2="86.5166" gradientUnits="userSpaceOnUse">
<stop stop-color="#E63D8E"/>
<stop offset="1" stop-color="#F0C344"/>
</linearGradient>
<linearGradient id="paint13_linear_0_1" x1="692.385" y1="139.788" x2="692.385" y2="221.005" gradientUnits="userSpaceOnUse">
<stop stop-color="#EED8FB"/>
<stop offset="1" stop-color="#F0BBF7"/>
</linearGradient>
<linearGradient id="paint14_linear_0_1" x1="706.588" y1="32.7656" x2="706.588" y2="193.539" gradientUnits="userSpaceOnUse">
<stop stop-color="#F0ADF7"/>
<stop offset="1" stop-color="#4EA9F4"/>
</linearGradient>
<linearGradient id="paint15_linear_0_1" x1="366" y1="118.5" x2="-5" y2="118.5" gradientUnits="userSpaceOnUse">
<stop stop-color="#62AAF5"/>
<stop offset="1" stop-color="#F0C3F8"/>
</linearGradient>
</defs>
</svg>